<?xml version="1.0" standalone="no"?> <!DOCTYPE svg PUBLIC "-//W3C//DTD SVG 20010904//EN" "http://www.w3.org/TR/2001/REC-SVG-20010904/DTD/svg10.dtd"> <svg version="1.0" xmlns="http://www.w3.org/2000/svg" width="1674.000000pt" height="1392.000000pt" viewBox="0 0 1674.000000 1392.000000" preserveAspectRatio="xMidYMid meet"> <g transform="translate(0.000000,1392.000000) scale(0.100000,-0.100000)" fill="#1d0432" stroke="none"> <path d="M13515 10329 c-16 -6 -55 -14 -85 -19 -127 -22 -297 -87 -395 -150 -16 -11 -37 -23 -45 -27 -14 -6 -62 -41 -120 -88 -61 -49 -157 -146 -209 -209 -127 -156 -245 -320 -298 -416 -10 -19 -37 -62 -58 -95 -47 -71 -52 -79 -89 -146 -46 -86 -51 -93 -62 -109 -10 -13 -31 -50 -93 -165 -9 -16 -19 -32 -22 -35 -8 -6 -58 -96 -90 -160 -13 -25 -32 -58 -44 -75 -12 -16 -34 -54 -49 -84 -36 -71 -49 -93 -62 -111 -10 -13 -38 -64 -93 -165 -9 -16 -21 -37 -27 -45 -10 -13 -38 -64 -98 -174 -6 -12 -23 -39 -37 -61 -36 -59 -46 -75 -70 -125 -12 -25 -28 -52 -34 -60 -11 -13 -36 -58 -94 -165 -9 -16 -21 -37 -27 -45 -10 -13 -32 -51 -98 -174 -6 -12 -23 -39 -37 -61 -14 -22 -36 -60 -48 -85 -31 -61 -45 -85 -58 -101 -9 -12 -32 -53 -97 -173 -6 -12 -24 -40 -39 -63 -15 -24 -27 -45 -27 -47 0 -3 -21 -39 -46 -81 -41 -68 -67 -95 -92 -95 -10 0 -29 265 -42 595 -6 132 -15 284 -20 338 -6 54 -10 137 -10 185 0 48 -6 179 -14 292 -28 375 -39 613 -44 865 -3 215 -1 261 14 325 10 41 24 82 31 91 7 8 13 18 13 22 0 9 87 134 140 202 78 100 127 178 134 215 21 111 23 146 6 203 -29 105 -139 201 -262 229 -51 12 -2052 31 -2643 25 -501 -5 -554 -15 -651 -114 -55 -57 -79 -124 -78 -218 2 -144 37 -196 274 -409 112 -100 204 -237 236 -351 21 -73 55 -298 57 -380 2 -66 0 -73 -30 -112 -18 -22 -33 -43 -33 -46 0 -3 -13 -21 -30 -39 -17 -18 -30 -36 -30 -41 0 -5 -20 -35 -45 -67 -25 -32 -45 -62 -45 -65 0 -4 -13 -24 -30 -45 -16 -21 -30 -41 -30 -44 0 -3 -33 -50 -72 -104 -40 -55 -80 -109 -88 -122 -8 -12 -23 -33 -33 -45 -9 -13 -17 -28 -17 -33 0 -6 -3 -12 -7 -14 -12 -5 -53 -66 -53 -78 0 -5 -4 -10 -9 -10 -5 0 -20 -17 -32 -37 -13 -21 -48 -72 -79 -115 -30 -42 -75 -106 -100 -142 -25 -37 -66 -95 -92 -131 -27 -35 -48 -66 -48 -69 0 -5 -51 -78 -154 -221 -28 -38 -55 -77 -61 -87 -5 -9 -33 -50 -61 -90 -167 -240 -248 -358 -264 -383 -8 -13 -43 -62 -78 -109 -34 -46 -65 -91 -68 -100 -4 -9 -18 -16 -34 -16 -25 0 -29 4 -34 38 -8 60 -24 196 -41 357 -9 83 -22 206 -30 275 -30 259 -36 318 -45 429 -6 63 -14 140 -20 170 -5 30 -10 73 -10 95 0 23 -6 88 -15 146 -14 101 -25 200 -60 540 -9 85 -23 211 -32 280 -10 74 -17 204 -17 320 -1 257 -6 246 210 536 132 177 162 261 134 382 -16 65 -30 92 -79 144 -37 40 -142 98 -178 98 -12 0 -33 4 -47 10 -16 6 -574 10 -1494 10 -1499 1 -1553 0 -1625 -36 -16 -8 -34 -14 -40 -14 -22 0 -105 -80 -127 -122 -18 -35 -22 -60 -23 -143 -1 -146 9 -162 217 -375 195 -198 236 -252 275 -365 24 -66 47 -175 66 -305 8 -58 22 -148 29 -200 8 -52 22 -147 31 -210 9 -63 22 -155 30 -205 16 -104 38 -260 60 -430 17 -131 39 -290 56 -400 6 -38 14 -106 19 -150 4 -44 13 -107 18 -140 15 -84 38 -240 57 -375 9 -63 22 -160 30 -215 8 -55 21 -152 30 -215 9 -63 22 -160 30 -215 8 -55 22 -149 30 -210 9 -60 22 -153 30 -205 8 -52 21 -144 30 -205 9 -60 22 -153 30 -205 7 -52 21 -149 30 -215 9 -66 22 -163 30 -215 8 -52 21 -149 30 -215 36 -268 46 -344 60 -430 8 -49 17 -110 20 -135 3 -25 9 -65 14 -90 5 -25 17 -81 26 -125 29 -145 73 -277 127 -390 103 -211 235 -329 437 -389 70 -21 298 -22 356 -1 22 8 48 15 58 15 45 0 218 91 273 144 6 6 39 35 72 64 88 77 308 344 432 522 19 28 61 86 92 130 32 44 89 126 127 182 39 57 97 141 130 188 33 47 97 139 142 205 46 66 120 174 166 240 124 180 257 374 268 393 6 9 29 42 53 74 23 31 42 60 42 63 0 4 13 24 29 44 15 20 62 86 103 146 163 240 253 372 291 425 21 30 72 105 113 165 41 61 116 169 165 240 49 72 137 200 195 285 58 85 165 242 238 349 73 107 137 196 143 198 23 8 40 -28 47 -94 3 -37 11 -99 16 -138 6 -38 15 -119 21 -180 24 -256 29 -304 39 -390 6 -49 18 -142 25 -205 8 -63 21 -180 30 -260 17 -159 38 -356 60 -550 8 -69 21 -197 30 -285 9 -88 22 -214 30 -280 8 -66 21 -187 30 -270 52 -487 83 -701 122 -845 35 -129 90 -242 164 -340 72 -94 122 -133 260 -200 8 -5 54 -18 101 -30 139 -35 389 -21 503 29 92 40 129 61 193 108 68 50 145 123 201 189 14 16 46 54 72 84 26 30 94 125 151 211 122 183 103 154 224 354 53 88 103 167 109 175 7 8 27 42 45 75 18 33 39 67 46 76 8 8 14 19 14 22 0 4 12 26 27 50 15 23 33 51 39 63 6 11 31 53 55 92 24 40 51 85 59 100 8 16 110 185 225 376 116 191 218 362 229 379 10 18 70 119 135 225 64 107 125 210 137 230 11 21 33 57 49 82 16 25 38 60 48 79 10 19 31 52 45 75 14 23 35 57 45 76 11 19 32 54 48 78 16 24 29 45 29 47 0 2 95 162 210 355 116 193 210 354 210 359 0 5 3 11 8 13 7 3 232 374 232 384 0 3 19 35 43 72 24 37 47 74 51 82 4 8 12 24 19 35 7 11 24 38 37 60 14 23 31 50 38 60 6 11 16 29 21 40 5 11 21 37 35 58 14 21 26 40 26 43 0 3 20 36 45 74 25 38 45 72 45 75 0 3 12 24 27 48 39 59 51 80 59 97 15 31 92 148 103 154 6 4 32 -21 58 -56 26 -34 62 -76 78 -93 85 -87 236 -169 410 -221 87 -26 364 -26 450 0 177 54 283 102 412 189 116 77 278 250 346 367 50 88 97 182 97 195 0 8 6 29 14 47 26 61 37 123 50 266 10 114 10 171 1 285 -7 78 -17 153 -23 167 -5 14 -17 52 -27 85 -51 178 -164 330 -367 493 -29 24 -64 45 -78 48 -14 3 -52 18 -85 34 -75 34 -119 50 -170 60 -22 4 -56 13 -75 19 -43 14 -492 13 -535 0z"/> </g> </svg>